# xmcd CD database file generated by Grip 3.0.7
# 
# Track frame offsets:
#       150
#       17632
#       33260
#       56047
#       70726
#       89667
#       103893
#       120613
#       145578
#       158376
#       171584
#       193965
#       209804
#       223744
#       241645
# 
# Disc length: 3391 seconds
# 
# Revision: 4
# Processed by: cddbd v1.4PL0 Copyright (c) Steve Scherf et al.
# Submitted via: Grip 3.0.7
# 
DISCID=dc0d3d0f
DTITLE=Dún an Doras - Bossa Nudski
DYEAR=1999
DGENRE=Folklore
TTITLE0=Good Morning Nightcap
TTITLE1=Sixteen Come Next Sunday
TTITLE2=Always Welcome
TTITLE3=Les llagrimes de les coses
TTITLE4=Breton Set
TTITLE5=The Flower of Magherally
TTITLE6=Play That Funky Music White Boy
TTITLE7=Lajument de Michao
TTITLE8=The Shores of Lough Gowna
TTITLE9=World Turned Upside Down
TTITLE10=Macedonian Set
TTITLE11=Los Manitobes
TTITLE12=Willie Taylor
TTITLE13=Farid F
TTITLE14=Tribute to Mick Byrne
EXTD=
EXTT0=
EXTT1=
EXTT2=
EXTT3=
EXTT4=
EXTT5=
EXTT6=
EXTT7=
EXTT8=
EXTT9=
EXTT10=
EXTT11=
EXTT12=
EXTT13=
EXTT14=
PLAYORDER=
